<svg width="180" height="49" viewBox="0 0 180 49" fill="none" xmlns="http://www.w3.org/2000/svg">
<path d="M61.3272 19.968C61.0392 19.648 60.6792 19.352 60.2472 19.08C59.8152 18.808 59.1272 18.672 58.1832 18.672C57.2872 18.672 56.6552 18.8 56.2872 19.056C55.9192 19.312 55.7352 19.592 55.7352 19.896C55.7352 20.04 55.7752 20.192 55.8552 20.352C55.9512 20.496 56.1112 20.64 56.3352 20.784C56.5592 20.912 56.8712 21.024 57.2712 21.12L61.2552 22.152C62.7592 22.52 63.8632 23.176 64.5672 24.12C65.2872 25.064 65.6472 26.152 65.6472 27.384C65.6472 28.568 65.3352 29.6 64.7112 30.48C64.0872 31.36 63.1992 32.04 62.0472 32.52C60.9112 33 59.5512 33.24 57.9672 33.24C56.7992 33.24 55.6872 33.112 54.6312 32.856C53.5912 32.584 52.6792 32.208 51.8952 31.728C51.1112 31.248 50.5272 30.696 50.1432 30.072C50.0472 29.896 50.0072 29.752 50.0232 29.64C50.0392 29.528 50.1272 29.408 50.2872 29.28L52.7592 27.576C52.9832 27.432 53.1672 27.376 53.3112 27.408C53.4552 27.424 53.5752 27.496 53.6712 27.624C54.0232 28.072 54.3752 28.44 54.7272 28.728C55.0792 29.016 55.4792 29.224 55.9272 29.352C56.3912 29.48 56.9352 29.544 57.5592 29.544C58.4392 29.544 59.1432 29.424 59.6712 29.184C60.1992 28.944 60.4632 28.6 60.4632 28.152C60.4632 27.96 60.4072 27.784 60.2952 27.624C60.1832 27.448 60.0152 27.296 59.7912 27.168C59.5832 27.04 59.3032 26.936 58.9512 26.856L55.3032 25.968C54.3432 25.728 53.5112 25.352 52.8072 24.84C52.1032 24.312 51.5592 23.688 51.1752 22.968C50.7912 22.248 50.5992 21.472 50.5992 20.64C50.5992 19.6 50.8952 18.648 51.4872 17.784C52.0952 16.92 52.9512 16.232 54.0552 15.72C55.1752 15.208 56.4872 14.952 57.9912 14.952C58.9512 14.952 59.8632 15.064 60.7272 15.288C61.6072 15.496 62.3912 15.792 63.0792 16.176C63.7672 16.56 64.2952 17.016 64.6632 17.544C64.7432 17.656 64.7992 17.776 64.8312 17.904C64.8792 18.016 64.8232 18.136 64.6632 18.264L62.0472 20.16C61.9352 20.24 61.8312 20.272 61.7352 20.256C61.6392 20.224 61.5032 20.128 61.3272 19.968ZM73.4513 20.04C74.6033 20.04 75.5793 20.256 76.3793 20.688C77.1793 21.104 77.8113 21.624 78.2753 22.248C78.7393 22.872 79.0353 23.496 79.1633 24.12C79.2753 24.52 79.1313 24.728 78.7313 24.744L75.4433 24.912C75.2193 24.928 75.0833 24.816 75.0353 24.576C75.0033 24.368 74.9473 24.152 74.8673 23.928C74.7873 23.688 74.6433 23.488 74.4353 23.328C74.2433 23.152 73.9553 23.064 73.5713 23.064C73.1873 23.064 72.8513 23.184 72.5633 23.424C72.2753 23.664 72.0513 24.048 71.8913 24.576C71.7313 25.088 71.6513 25.776 71.6513 26.64C71.6513 27.52 71.7393 28.232 71.9153 28.776C72.0913 29.304 72.3393 29.688 72.6593 29.928C72.9953 30.152 73.3873 30.264 73.8353 30.264C74.4913 30.264 74.9713 30.088 75.2753 29.736C75.5953 29.368 75.9073 28.912 76.2113 28.368C76.2433 28.304 76.2913 28.264 76.3553 28.248C76.4193 28.216 76.5313 28.216 76.6913 28.248L78.9473 28.68C79.1713 28.728 79.2433 28.912 79.1633 29.232C79.0993 29.536 78.9473 29.92 78.7073 30.384C78.4673 30.832 78.1233 31.272 77.6753 31.704C77.2273 32.136 76.6513 32.504 75.9473 32.808C75.2593 33.096 74.4273 33.24 73.4513 33.24C72.1713 33.24 71.0273 32.968 70.0193 32.424C69.0273 31.864 68.2433 31.096 67.6673 30.12C67.0913 29.128 66.8033 27.984 66.8033 26.688C66.8033 25.36 67.0913 24.2 67.6673 23.208C68.2593 22.216 69.0513 21.44 70.0433 20.88C71.0513 20.32 72.1873 20.04 73.4513 20.04ZM86.8112 33.24C85.4992 33.24 84.3392 32.96 83.3312 32.4C82.3392 31.84 81.5552 31.072 80.9792 30.096C80.4192 29.104 80.1392 27.976 80.1392 26.712C80.1392 25.368 80.4352 24.2 81.0272 23.208C81.6192 22.2 82.4192 21.424 83.4272 20.88C84.4352 20.32 85.5712 20.04 86.8352 20.04C88.1792 20.04 89.3472 20.328 90.3392 20.904C91.3472 21.48 92.1312 22.272 92.6912 23.28C93.2512 24.272 93.5312 25.416 93.5312 26.712C93.5312 27.976 93.2432 29.104 92.6672 30.096C92.1072 31.072 91.3232 31.84 90.3152 32.4C89.3072 32.96 88.1392 33.24 86.8112 33.24ZM86.8352 30.168C87.2672 30.168 87.6192 30.048 87.8912 29.808C88.1632 29.552 88.3632 29.16 88.4912 28.632C88.6192 28.104 88.6832 27.432 88.6832 26.616C88.6832 25.768 88.6192 25.08 88.4912 24.552C88.3632 24.024 88.1632 23.64 87.8912 23.4C87.6192 23.144 87.2672 23.016 86.8352 23.016C86.4192 23.016 86.0672 23.144 85.7792 23.4C85.5072 23.64 85.3072 24.024 85.1792 24.552C85.0512 25.08 84.9872 25.768 84.9872 26.616C84.9872 27.448 85.0512 28.128 85.1792 28.656C85.3072 29.168 85.5072 29.552 85.7792 29.808C86.0672 30.048 86.4192 30.168 86.8352 30.168ZM100.866 29.88C101.234 29.88 101.57 29.784 101.874 29.592C102.194 29.4 102.458 29.168 102.666 28.896V20.976C102.666 20.512 102.93 20.28 103.458 20.28H106.89C107.306 20.28 107.514 20.488 107.514 20.904L107.418 32.472C107.418 32.824 107.266 33 106.962 33H103.17C102.882 33 102.738 32.84 102.738 32.52V31.464C102.738 31.368 102.706 31.312 102.642 31.296C102.594 31.264 102.53 31.288 102.45 31.368C101.906 32.008 101.306 32.48 100.65 32.784C99.9939 33.088 99.2659 33.24 98.4659 33.24C97.7779 33.24 97.1619 33.088 96.6179 32.784C96.0899 32.464 95.6659 32.008 95.3459 31.416C95.0419 30.808 94.8899 30.08 94.8899 29.232V21C94.8899 20.52 95.1379 20.28 95.6339 20.28H99.1379C99.5059 20.28 99.6899 20.488 99.6899 20.904V28.704C99.6899 29.072 99.7939 29.36 100.002 29.568C100.226 29.776 100.514 29.88 100.866 29.88ZM116.072 23.52C115.864 23.52 115.76 23.624 115.76 23.832V28.44C115.76 28.856 115.888 29.176 116.144 29.4C116.416 29.608 116.848 29.712 117.44 29.712H118.472C118.6 29.712 118.704 29.76 118.784 29.856C118.864 29.952 118.904 30.064 118.904 30.192L118.88 32.112C118.88 32.496 118.648 32.736 118.184 32.832C117.832 32.88 117.472 32.92 117.104 32.952C116.752 32.968 116.392 32.984 116.024 33C115.672 33 115.312 33 114.944 33C113.792 33 112.84 32.728 112.088 32.184C111.336 31.624 110.96 30.832 110.96 29.808V23.952C110.96 23.664 110.84 23.52 110.6 23.52H109.448C109.064 23.52 108.872 23.344 108.872 22.992V20.736C108.872 20.432 109.048 20.28 109.4 20.28H110.816C110.992 20.28 111.088 20.184 111.104 19.992L111.488 16.44C111.52 16.12 111.664 15.96 111.92 15.96H115.448C115.752 15.96 115.904 16.136 115.904 16.488V19.992C115.904 20.168 115.992 20.256 116.168 20.256H118.376C118.728 20.256 118.904 20.408 118.904 20.712V22.992C118.904 23.344 118.704 23.52 118.304 23.52H116.072ZM138.678 20.28C138.87 20.28 139.006 20.352 139.086 20.496C139.166 20.64 139.166 20.8 139.086 20.976L135.006 32.568C134.958 32.728 134.894 32.84 134.814 32.904C134.75 32.968 134.63 33 134.454 33H131.958C131.606 33 131.374 32.824 131.262 32.472L129.726 27.432C129.662 27.256 129.59 27.168 129.51 27.168C129.446 27.168 129.39 27.256 129.342 27.432L127.662 32.568C127.614 32.728 127.55 32.84 127.47 32.904C127.39 32.968 127.262 33 127.086 33H124.518C124.182 33 123.958 32.824 123.846 32.472L119.934 20.976C119.87 20.8 119.878 20.64 119.958 20.496C120.054 20.352 120.198 20.28 120.39 20.28H124.11C124.254 20.28 124.382 20.328 124.494 20.424C124.622 20.52 124.702 20.632 124.734 20.76L126.39 25.896C126.422 26.04 126.47 26.112 126.534 26.112C126.614 26.112 126.686 26.032 126.75 25.872L128.31 20.76C128.342 20.632 128.414 20.52 128.526 20.424C128.654 20.328 128.79 20.28 128.934 20.28H131.55C131.678 20.28 131.798 20.328 131.91 20.424C132.038 20.52 132.118 20.632 132.15 20.76L133.662 25.896C133.694 26.04 133.742 26.112 133.806 26.112C133.886 26.112 133.958 26.032 134.022 25.872L135.654 20.76C135.718 20.632 135.798 20.52 135.894 20.424C136.006 20.328 136.134 20.28 136.278 20.28H138.678ZM143.982 27.912C143.982 28.392 144.086 28.792 144.294 29.112C144.518 29.432 144.814 29.672 145.182 29.832C145.566 29.992 145.99 30.072 146.454 30.072C146.87 30.072 147.278 29.976 147.678 29.784C148.078 29.592 148.542 29.24 149.07 28.728C149.134 28.664 149.19 28.632 149.238 28.632C149.302 28.616 149.414 28.64 149.574 28.704L151.758 29.592C152.046 29.704 152.078 29.896 151.854 30.168C151.278 30.968 150.694 31.592 150.102 32.04C149.526 32.488 148.886 32.8 148.182 32.976C147.494 33.152 146.702 33.24 145.806 33.24C144.526 33.24 143.374 32.968 142.35 32.424C141.326 31.88 140.518 31.128 139.926 30.168C139.334 29.208 139.038 28.104 139.038 26.856C139.038 25.496 139.342 24.304 139.95 23.28C140.574 22.256 141.39 21.464 142.398 20.904C143.422 20.328 144.526 20.04 145.71 20.04C146.974 20.04 148.094 20.312 149.07 20.856C150.046 21.4 150.814 22.184 151.374 23.208C151.95 24.216 152.238 25.448 152.238 26.904C152.238 27.112 152.214 27.264 152.166 27.36C152.134 27.44 152.014 27.488 151.806 27.504H144.342C144.23 27.504 144.142 27.536 144.078 27.6C144.014 27.664 143.982 27.768 143.982 27.912ZM147.174 25.032C147.334 25.032 147.438 25.016 147.486 24.984C147.55 24.936 147.582 24.84 147.582 24.696C147.582 24.488 147.526 24.24 147.414 23.952C147.302 23.664 147.126 23.408 146.886 23.184C146.646 22.96 146.326 22.848 145.926 22.848C145.606 22.848 145.294 22.928 144.99 23.088C144.702 23.232 144.47 23.464 144.294 23.784C144.134 24.104 144.054 24.512 144.054 25.008L147.174 25.032ZM160.202 31.992C159.77 32.344 159.266 32.64 158.69 32.88C158.13 33.12 157.474 33.24 156.722 33.24C155.522 33.24 154.578 32.904 153.89 32.232C153.218 31.56 152.882 30.728 152.882 29.736C152.882 28.792 153.178 27.968 153.77 27.264C154.378 26.56 155.234 26.016 156.338 25.632C157.442 25.232 158.746 25.032 160.25 25.032H160.418C160.482 25.032 160.554 25.016 160.634 24.984C160.73 24.936 160.778 24.84 160.778 24.696V24.288C160.778 23.84 160.658 23.496 160.418 23.256C160.194 23.016 159.842 22.896 159.362 22.896C159.026 22.896 158.682 22.976 158.33 23.136C157.978 23.28 157.698 23.576 157.49 24.024C157.426 24.152 157.354 24.24 157.274 24.288C157.21 24.32 157.066 24.32 156.842 24.288L153.698 23.664C153.586 23.632 153.498 23.576 153.434 23.496C153.386 23.4 153.418 23.2 153.53 22.896C153.898 21.872 154.602 21.144 155.642 20.712C156.698 20.264 158.01 20.04 159.578 20.04C161.066 20.04 162.226 20.208 163.058 20.544C163.89 20.88 164.474 21.344 164.81 21.936C165.162 22.528 165.338 23.216 165.338 24V32.352C165.338 32.592 165.298 32.76 165.218 32.856C165.154 32.952 165.01 33 164.786 33H161.498C161.29 33 161.138 32.92 161.042 32.76C160.962 32.584 160.906 32.384 160.874 32.16L160.85 31.992C160.802 31.672 160.586 31.672 160.202 31.992ZM160.778 27.624C160.778 27.336 160.658 27.192 160.418 27.192H160.322C160.13 27.192 159.874 27.232 159.554 27.312C159.25 27.376 158.946 27.488 158.642 27.648C158.338 27.792 158.074 27.984 157.85 28.224C157.642 28.464 157.538 28.752 157.538 29.088C157.538 29.424 157.658 29.696 157.898 29.904C158.138 30.112 158.474 30.216 158.906 30.216C159.226 30.216 159.49 30.168 159.698 30.072C159.922 29.976 160.098 29.872 160.226 29.76C160.37 29.632 160.498 29.504 160.61 29.376C160.722 29.232 160.778 29.072 160.778 28.896V27.624ZM168.056 33C167.816 33 167.648 32.952 167.552 32.856C167.472 32.76 167.432 32.608 167.432 32.4V20.832C167.432 20.464 167.584 20.28 167.888 20.28H171.632C171.92 20.28 172.064 20.44 172.064 20.76V22.104C172.064 22.216 172.112 22.288 172.208 22.32C172.304 22.336 172.392 22.288 172.472 22.176C172.728 21.776 173.056 21.416 173.456 21.096C173.856 20.776 174.28 20.52 174.728 20.328C175.176 20.136 175.584 20.04 175.952 20.04C176.544 20.04 176.84 20.2 176.84 20.52V24.168C176.84 24.504 176.68 24.632 176.36 24.552C175.992 24.456 175.608 24.392 175.208 24.36C174.824 24.312 174.52 24.288 174.296 24.288C174.04 24.288 173.784 24.336 173.528 24.432C173.288 24.512 173.064 24.632 172.856 24.792C172.664 24.952 172.512 25.128 172.4 25.32C172.288 25.512 172.232 25.712 172.232 25.92V32.304C172.232 32.768 171.968 33 171.44 33H168.056Z" fill="white"/>
<path d="M23.6788 0L23.8818 0.0782222L24.4501 0.664889L24.8154 1.01689L25.0996 1.32978L25.4649 1.68178L25.8302 2.112L26.0738 2.38578L26.3579 2.69867V2.77689H26.4391L26.6827 3.08978L27.0074 3.48089L27.9816 4.73244L28.5093 5.47556L28.8747 5.984L29.4024 6.84444L29.8083 7.50933L30.1331 8.17422L30.2954 8.48711L30.4578 8.87822L30.7825 9.62133L30.9449 10.1298L31.0261 10.4818L31.1479 10.9902L31.3102 11.8116L31.3914 12.5938L31.7568 12.9458L32.2033 13.2978L32.6904 13.6889L33.1369 14.0409L33.5428 14.3929L33.9082 14.6276L34.1111 14.5884L34.7606 14.3147L35.0448 14.1973L35.5319 14.0018L36.1408 13.8062L36.6279 13.6889L37.0338 13.6107L37.7239 13.5324H39.2664L39.9971 13.6107L40.5248 13.6889L40.9307 13.8062L41.296 13.9236L41.9049 14.1582L42.1485 14.3147L42.6356 14.5493L43.4069 15.0187V15.0969L43.5692 15.1751L43.7722 15.2924V15.3707L43.9346 15.4489L44.2593 15.7618L44.4623 15.9182L44.8276 16.3484L45.0712 16.6613L45.3959 17.0916L45.5583 17.3653L45.8018 17.7564L46.086 18.3431L46.3701 19.1644L46.4919 19.6729L46.5731 20.1813V21.6676L46.4513 22.3716L46.2889 22.9973L46.086 23.5058L45.7612 24.0924L45.5177 24.5618L45.1523 25.0702L44.8276 25.4613H44.7464L44.6652 25.6178L44.0563 26.2044H43.9752L43.894 26.3609L43.3663 26.7129L42.9603 26.9867L42.5138 27.2213L42.0267 27.456L41.3772 27.6907L40.7683 27.8862L39.7129 28.1209L39.6317 28.16L38.8199 28.2382L38.7387 28.1991L39.0229 27.8862L39.0634 27.808H39.1446L39.2258 27.6516L39.5912 27.0649L39.7941 26.5956L39.8753 26.3218L39.9159 26.0089V25.0311L39.7941 24.4053L39.5912 23.8578L39.2258 23.2711L38.8605 22.8018L38.6575 22.6062L38.1704 22.176L37.8051 21.9413L37.6427 21.9022L37.6021 27.3778L37.5615 28.9422L37.3991 29.6462L37.2368 30.0373L36.912 30.5849L36.5873 30.9369L36.2626 31.2107L35.6943 31.68L35.0448 32.1884L34.4765 32.6187L33.827 33.1271L33.4211 33.44L32.7716 33.9484L32.4468 34.2222H32.3657L32.2845 34.3787L31.8379 34.7307L31.5944 34.9262L31.5538 35.0044L31.9597 35.1218L32.5686 35.2782L32.9745 35.3173H33.5834L34.1517 35.2391L34.6794 35.0827L35.3289 34.7698L35.8566 34.3787L36.0596 34.1049H36.1408L36.222 33.9484L36.3843 33.7529H36.4655L36.5467 33.5964L36.7091 33.6747L36.9526 34.0658L37.2368 34.8871L37.318 35.3173L37.3586 35.9822V36.4516L37.318 37.0773L37.1962 37.5467L37.0338 38.0551L36.8308 38.5244L36.4249 39.1111L36.0596 39.5804H35.9784V39.6587L35.5319 40.0107L35.4101 40.0498V40.128L35.1665 40.2062L35.126 40.3236L34.5171 40.6364L34.03 40.7929L33.5834 40.9102L33.1369 40.9493H32.6092L32.0815 40.9102L31.5132 40.7538L30.9449 40.5582L30.4578 40.2844V40.2062L30.2548 40.128L29.8083 39.776L29.4836 39.5022L29.1994 39.1893L28.7529 38.6809L28.4688 38.2898L28.144 37.8204V37.7422L27.9005 37.8596L27.4945 38.2116H27.4133L27.3322 38.368L27.0074 38.6418L26.7639 38.8373L26.8045 38.9938L27.0886 39.1893V39.2676L27.2916 39.3458L27.4133 39.5022V39.5804H27.4945L27.5351 39.6978L27.5757 41.1449V41.9662L27.4945 42.7484L27.2916 43.5307L27.1292 43.9218L26.8045 44.6649L26.5203 45.2124L26.0738 45.9556L25.6273 46.6204L25.2213 47.168L24.8154 47.6764L24.3283 48.2631L23.963 48.6933L23.76 48.8889H23.6382V48.8107H23.557L22.8264 47.9502L22.5016 47.5591L21.9333 46.816L21.5274 46.2293L21.1621 45.6036L20.7561 44.9387L20.472 44.3129L20.2284 43.648L20.0255 42.9831L19.9037 42.0444V39.776L19.9849 39.5804L20.5532 39.072L20.3096 38.7982L19.7819 38.368L19.4572 38.0942L19.2136 37.9769L18.9701 38.368L18.5641 38.8373L18.2394 39.2284L17.6711 39.776H17.5899V39.8542L17.1434 40.128L16.8187 40.3627L16.291 40.6364L15.6009 40.832L15.3167 40.9102L14.9108 40.9493H14.2613L13.7336 40.8711L13.1247 40.7147L12.4752 40.4018L12.2317 40.2453L11.704 39.8151L11.2981 39.424V39.3458H11.2169L10.7298 38.6418L10.4862 38.1724L10.2832 37.5858L10.1615 37.1164L10.1209 36.5689V35.7476L10.2021 35.1218L10.3644 34.5351L10.5674 33.9876L10.8515 33.5573L11.0951 33.7529L11.4198 34.144L11.501 34.1831L11.6228 34.3787L12.1911 34.8089L12.7594 35.0827L13.1247 35.2L13.5307 35.2782L14.4643 35.3173L15.2355 35.2391L15.6009 35.1218L15.4385 34.8871L14.992 34.5351L14.5455 34.144L13.9772 33.7138L13.4495 33.2836L13.0435 32.9707L12.3941 32.4622L11.9881 32.1493L11.4198 31.68L10.9733 31.328L10.5674 30.976L10.1615 30.5458L9.95849 30.1938L9.71494 29.6853L9.59316 29.1378L9.55257 28.8249L9.51197 22.0196L9.14664 22.2933L8.74071 22.6453L8.61894 22.8018H8.53775L8.45657 22.9582L8.21301 23.2711L7.88827 23.8187L7.6853 24.3662L7.56353 24.8747L7.52293 25.2267V25.7351L7.60412 26.3609L7.84767 27.0258L8.09123 27.456L8.45657 27.9253L8.65953 28.16V28.2773L8.45657 28.2382L7.44175 28.0818L6.79227 27.9253L6.14278 27.7298L5.24974 27.3778L4.76263 27.1431L4.03196 26.7129L3.50426 26.3218L2.65181 25.5004L2.32707 25.1093L2.00233 24.6791L1.75877 24.288L1.35285 23.4276L1.23107 23.1147L1.0687 22.6062L0.906326 21.824V20.064L1.10929 19.1253L1.35285 18.4213L1.5964 17.8347L1.79937 17.4827L2.20529 16.8569L2.65181 16.3093L2.81418 16.0747L3.34189 15.5662L3.66663 15.2924L3.91018 15.0969H3.99137V15.0187L4.27552 14.8231L4.55967 14.6667L5.24974 14.3147L5.45271 14.2756L5.4933 14.1582L6.30515 13.8844L6.91404 13.728L7.31997 13.6498L8.05064 13.5324H9.67435L10.8921 13.6889L11.0545 13.7671L11.5822 13.8844L11.9881 14.0409L12.4346 14.1973L12.6376 14.3929L13.0841 14.7058L13.3683 14.5493L13.7336 14.2756L13.896 14.08L14.789 13.376L15.3167 12.9458L15.885 12.5156L16.0474 12.3591H16.1286L16.2098 11.5769L16.4533 10.4818L16.6969 9.69956L17.2246 8.40889L17.5087 7.82222L18.077 6.80533L18.3206 6.45333L18.5641 6.02311L18.8483 5.59289L19.376 4.88889L19.8631 4.224L20.1879 3.83289L20.675 3.20711L21.2027 2.62044L21.6086 2.112L21.9739 1.72089L22.3393 1.29067L22.8264 0.821333L22.9076 0.704H22.9887V0.625778H23.0699V0.547556L23.3947 0.273778L23.5976 0.0782222L23.6788 0Z" fill="white"/>
<path d="M23.6788 0L23.8818 0.0782222L24.4501 0.664889L24.8154 1.01689L25.0996 1.32978L25.4649 1.68178L25.8302 2.112L26.0738 2.38578L26.3579 2.69867V2.77689H26.4391L26.6827 3.08978L27.0074 3.48089L27.9816 4.73244L28.5093 5.47556L28.8747 5.984L29.4024 6.84444L29.8083 7.50933L30.1331 8.17422L30.2954 8.48711L30.4578 8.87822L30.7825 9.62133L30.9449 10.1298L31.0261 10.4818L31.1479 10.9902L31.3102 11.8116L31.3914 12.5938L31.7568 12.9458L32.2033 13.2978L32.6904 13.6889L33.1369 14.0409L33.5428 14.3929L33.9082 14.6276L34.1111 14.5884L34.7606 14.3147L35.0448 14.1973L35.5319 14.0018L36.1408 13.8062L36.6279 13.6889L37.0338 13.6107L37.7239 13.5324H39.2664L39.9971 13.6107L40.5248 13.6889L40.9307 13.8062L41.296 13.9236L41.9049 14.1582L42.1485 14.3147L42.6356 14.5493L43.4069 15.0187V15.0969L43.5692 15.1751L43.7722 15.2924V15.3707L43.9346 15.4489L44.2593 15.7618L44.4623 15.9182L44.8276 16.3484L45.0712 16.6613L45.3959 17.0916L45.5583 17.3653L45.8018 17.7564L46.086 18.3431L46.3701 19.1644L46.4919 19.6729L46.5731 20.1813V21.6676L46.4513 22.3716L46.2889 22.9973L46.086 23.5058L45.7612 24.0924L45.5177 24.5618L45.1523 25.0702L44.8276 25.4613H44.7464L44.6652 25.6178L44.0563 26.2044H43.9752L43.894 26.3609L43.3663 26.7129L42.9603 26.9867L42.5138 27.2213L42.0267 27.456L41.3772 27.6907L40.7683 27.8862L39.7129 28.1209L39.6317 28.16L38.8199 28.2382L38.7387 28.1991L39.0229 27.8862L39.0634 27.808H39.1446L39.2258 27.6516L39.5912 27.0649L39.7941 26.5956L39.8753 26.3218L39.9159 26.0089V25.0311L39.7941 24.4053L39.5912 23.8578L39.2258 23.2711L38.8605 22.8018L38.6575 22.6062L38.1704 22.176L37.8051 21.9413L37.6427 21.9022L37.6021 27.3778L37.5615 28.9422L37.3991 29.6462L37.2368 30.0373L36.912 30.5849L36.5873 30.9369L36.2626 31.2107L35.6943 31.68L35.0448 32.1884L34.4765 32.6187L33.827 33.1271L33.4211 33.44L32.7716 33.9484L32.4468 34.2222H32.3657L32.2845 34.3787L31.8379 34.7307L31.5944 34.9262L31.5538 35.0044L31.9597 35.1218L32.5686 35.2782L32.9745 35.3173H33.5834L34.1517 35.2391L34.6794 35.0827L35.3289 34.7698L35.8566 34.3787L36.0596 34.1049H36.1408L36.222 33.9484L36.3843 33.7529H36.4655L36.5467 33.5964L36.7091 33.6747L36.9526 34.0658L37.2368 34.8871L37.318 35.3173L37.3586 35.9822V36.4516L37.318 37.0773L37.1962 37.5467L37.0338 38.0551L36.8308 38.5244L36.4249 39.1111L36.0596 39.5804H35.9784V39.6587L35.5319 40.0107L35.4101 40.0498V40.128L35.1665 40.2062L35.126 40.3236L34.5171 40.6364L34.03 40.7929L33.5834 40.9102L33.1369 40.9493H32.6092L32.0815 40.9102L31.5132 40.7538L30.9449 40.5582L30.4578 40.2844V40.2062L30.2548 40.128L29.8083 39.776L29.4836 39.5022L29.1994 39.1893L28.7529 38.6809L28.4688 38.2898L28.144 37.8204V37.7422L27.9005 37.8596L27.4945 38.2116H27.4133L27.3322 38.368L27.0074 38.6418L26.7639 38.8373L26.8045 38.9938L27.0886 39.1893V39.2676L27.2916 39.3458L27.4133 39.5022V39.5804H27.4945L27.5351 39.6978L27.5757 41.1449V41.9662L27.4945 42.7484L27.2916 43.5307L27.1292 43.9218L26.8045 44.6649L26.5203 45.2124L26.0738 45.9556L25.6273 46.6204L25.2213 47.168L24.8154 47.6764L24.3283 48.2631L23.963 48.6933L23.76 48.8889H23.6382V48.8107H23.557L22.8264 47.9502L22.5016 47.5591L21.9333 46.816L21.5274 46.2293L21.1621 45.6036L20.7561 44.9387L20.472 44.3129L20.2284 43.648L20.0255 42.9831L19.9037 42.0444V39.776L19.9849 39.5804L20.5532 39.072L20.3096 38.7982L19.7819 38.368L19.4572 38.0942L19.2136 37.9769L18.9701 38.368L18.5641 38.8373L18.2394 39.2284L17.6711 39.776H17.5899V39.8542L17.1434 40.128L16.8187 40.3627L16.291 40.6364L15.6009 40.832L15.3167 40.9102L14.9108 40.9493H14.2613L13.7336 40.8711L13.1247 40.7147L12.4752 40.4018L12.2317 40.2453L11.704 39.8151L11.2981 39.424V39.3458H11.2169L10.7298 38.6418L10.4862 38.1724L10.2832 37.5858L10.1615 37.1164L10.1209 36.5689V35.7476L10.2021 35.1218L10.3644 34.5351L10.5674 33.9876L10.8515 33.5573L11.0951 33.7529L11.4198 34.144L11.501 34.1831L11.6228 34.3787L12.1911 34.8089L12.7594 35.0827L13.1247 35.2L13.5307 35.2782L14.4643 35.3173L15.2355 35.2391L15.6009 35.1218L15.4385 34.8871L14.992 34.5351L14.5455 34.144L13.9772 33.7138L13.4495 33.2836L13.0435 32.9707L12.3941 32.4622L11.9881 32.1493L11.4198 31.68L10.9733 31.328L10.5674 30.976L10.1615 30.5458L9.95849 30.1938L9.71494 29.6853L9.59316 29.1378L9.55257 28.8249L9.51197 22.0196L9.14664 22.2933L8.74071 22.6453L8.61894 22.8018H8.53775L8.45657 22.9582L8.21301 23.2711L7.88827 23.8187L7.6853 24.3662L7.56353 24.8747L7.52293 25.2267V25.7351L7.60412 26.3609L7.84767 27.0258L8.09123 27.456L8.45657 27.9253L8.65953 28.16V28.2773L8.45657 28.2382L7.44175 28.0818L6.79227 27.9253L6.14278 27.7298L5.24974 27.3778L4.76263 27.1431L4.03196 26.7129L3.50426 26.3218L2.65181 25.5004L2.32707 25.1093L2.00233 24.6791L1.75877 24.288L1.35285 23.4276L1.23107 23.1147L1.0687 22.6062L0.906326 21.824V20.064L1.10929 19.1253L1.35285 18.4213L1.5964 17.8347L1.79937 17.4827L2.20529 16.8569L2.65181 16.3093L2.81418 16.0747L3.34189 15.5662L3.66663 15.2924L3.91018 15.0969H3.99137V15.0187L4.27552 14.8231L4.55967 14.6667L5.24974 14.3147L5.45271 14.2756L5.4933 14.1582L6.30515 13.8844L6.91404 13.728L7.31997 13.6498L8.05064 13.5324H9.67435L10.8921 13.6889L11.0545 13.7671L11.5822 13.8844L11.9881 14.0409L12.4346 14.1973L12.6376 14.3929L13.0841 14.7058L13.3683 14.5493L13.7336 14.2756L13.896 14.08L14.789 13.376L15.3167 12.9458L15.885 12.5156L16.0474 12.3591H16.1286L16.2098 11.5769L16.4533 10.4818L16.6969 9.69956L17.2246 8.40889L17.5087 7.82222L18.077 6.80533L18.3206 6.45333L18.5641 6.02311L18.8483 5.59289L19.376 4.88889L19.8631 4.224L20.1879 3.83289L20.675 3.20711L21.2027 2.62044L21.6086 2.112L21.9739 1.72089L22.3393 1.29067L22.8264 0.821333L22.9076 0.704H22.9887V0.625778H23.0699V0.547556L23.3947 0.273778L23.5976 0.0782222L23.6788 0Z" fill="white"/>
<path d="M23.354 9.89514H23.7599L24.2064 10.0516L24.4094 10.2471L25.0183 10.7556L25.4648 11.1076L25.9925 11.5378L26.5608 11.968L27.1697 12.4765L28.1845 13.2587L29.0776 13.9627L29.4835 14.3147L29.8894 14.6276L30.5389 15.136L31.1072 15.5663L31.7567 16.0747L32.0814 16.3485L32.4874 16.6614L33.0557 17.0916L33.5428 17.4436V17.5218L33.7051 17.6L34.1517 18.0303L34.517 18.6169L34.72 19.1254L34.8011 19.4383L34.8417 19.8294V27.9254L34.7605 28.4729L34.5576 29.0205L34.2328 29.568L33.8269 29.9983L33.5022 30.2329L33.2992 30.4285L32.6497 30.8587L31.7973 31.3671L31.0666 31.7974L30.2142 32.3058H30.0924L29.8488 30.9369L29.5647 29.5289L29.1993 28.0427L28.9152 27.7298L28.4281 27.2996L28.0222 26.9476L27.7786 26.7129L27.8598 26.5174L27.941 26.4391L27.9004 26.2827L27.738 26.0871V26.0089H27.6568L27.3727 25.696L26.9667 25.3049L26.6826 24.992L26.3173 24.6009L25.8707 24.6791L25.5866 24.7574H25.4242V23.7014L25.5866 23.584L27.0479 23.3494L27.2915 23.1929L27.4133 22.8409L27.6162 21.1591L28.0222 20.9245L28.1033 20.8071V20.5725L27.6568 20.1031L27.3321 19.7903L27.2103 19.5947L27.2509 18.9689L27.2915 18.5387L28.2251 18.2649H28.3875V18.1867L29.5241 17.7956L30.2142 17.4827L30.7013 17.1698L30.8231 16.9743L30.7825 16.7005L30.5389 16.544L30.0112 16.4267L28.9152 16.3876L28.0628 16.4267L27.3321 16.5049H27.0479L26.8856 16.0356L26.5608 15.5663L26.1143 15.0969L25.5866 14.7449L25.0183 14.4711L24.3688 14.2756L24.247 14.1974L23.3134 14.0018H22.7451L22.2986 14.1974L22.1768 14.3147L21.5273 14.7058L20.9996 15.0578L20.5125 15.488L20.1878 15.9183L19.9036 16.4658L19.7007 17.1307L19.6195 18.1085L18.6047 18.4605L17.7522 18.7734L16.8186 19.2036L16.3721 19.5165L16.2097 19.712L16.1691 19.9858L16.3315 20.1423L16.4127 20.1814V20.2596L17.0215 20.3378H18.2393L19.0512 20.2596L19.2947 20.1814L19.8224 20.1423L20.1472 21.0809L20.4719 21.6285L20.8373 22.0978L21.3244 22.6063L21.7303 22.9191L21.7709 22.9974L21.7303 23.7014L20.9184 23.4667L20.4313 24.0143L20.0254 24.5227L19.6195 24.9529L19.2541 25.3831L19.173 25.5005L19.3353 25.5787L19.4977 25.696L19.4165 25.8525L19.0918 26.1654H19.0106L18.9294 26.3218L18.6047 26.6738L18.3205 27.0649L17.9958 27.6907L17.671 28.5903L17.5087 29.0205L17.2245 30.1547L16.9404 31.6409L16.8592 32.1103L16.4127 31.8756L15.479 31.328L14.0989 30.5067L13.8147 30.3894L13.2464 29.92L13.1652 29.8809V29.8027H13.0841L12.6781 29.2551L12.4346 28.7076L12.3128 28.1209L12.2722 27.6907V20.2987L12.3128 19.5556L12.4346 18.9689L12.6375 18.4996L12.9217 18.0694L13.287 17.6783L13.8553 17.248L14.2206 16.9743L14.8701 16.4658L15.1949 16.2311L15.3978 16.0356L15.9661 15.6054L16.4532 15.2143L16.8998 14.8623L17.4275 14.432L17.6304 14.2756H17.7116L17.7522 14.1583L18.3205 13.728L18.8482 13.2978L19.4165 12.8676L19.9848 12.3983L20.5531 11.968L20.959 11.616L21.3244 11.3423L21.7709 10.9903L22.2986 10.56L22.5827 10.3254H22.6639V10.2471H22.7451L22.7857 10.1298L23.1916 9.93425L23.354 9.89514Z" fill="#8B208A" fill-opacity="1"/>
<path d="M26.9671 28.9814L27.0483 29.0205L27.5354 30.1547L27.8601 30.9761V31.4063L27.6977 33.2054L27.6166 33.3618L27.1294 32.5405L26.6829 31.6801L26.4394 31.2498L26.3582 31.3281L25.6275 33.0098L25.384 33.5574L25.3028 33.5183L25.181 32.9316L24.8563 31.4454V31.0152L25.3028 29.2552L25.5057 29.2943L25.7899 29.4116H26.277L26.6423 29.2552L26.8859 29.0987L26.9671 28.9814Z" fill="#8B208A" fill-opacity="1"/>
<path d="M21.1219 24.1707H21.2031L21.3249 24.288L22.3803 24.8747L23.4357 25.5004L24.3287 26.048L24.5723 26.2044V26.2827L24.7753 26.3609L25.1812 26.6347L25.1406 26.752L24.8159 27.0258L24.5317 27.3387L24.4099 27.6124L24.207 27.5733L23.2733 27.0649L22.5833 26.7129L21.7714 26.2827V26.2044L21.5684 26.1262L20.5942 25.6178L20.1883 25.3831L20.2695 25.1875L20.716 24.6791L21.1219 24.1707Z" fill="#8B208A" fill-opacity="1"/>
<path d="M25.668 27.1822H26.2769L26.6016 27.3777L26.8858 27.6906L27.0076 27.9644V28.1991L26.8046 28.0035L26.5205 27.808L26.2363 27.7297H25.9522L25.5056 27.8862L25.2215 28.1991L25.1403 28.3946L25.0997 28.6293L25.0185 28.5902L24.9373 28.3555V27.8862L25.1403 27.4951L25.3839 27.2995L25.668 27.1822Z" fill="#8B208A" fill-opacity="1"/>
<path d="M26.1147 25.3441L26.3583 25.5396L26.6424 25.8525L27.0078 26.2045L27.2513 26.5174L27.1701 26.9476L27.0889 27.0649L26.7642 26.7912L26.2771 26.5956L25.9929 26.5174L26.0741 25.5005L26.1147 25.3441Z" fill="#8B208A" fill-opacity="1"/>
</svg>
